<?xml version="1.0" standalone="no"?>
<!DOCTYPE svg PUBLIC "-//W3C//DTD SVG 20010904//EN"
 "http://www.w3.org/TR/2001/REC-SVG-20010904/DTD/svg10.dtd">
<svg version="1.0" xmlns="http://www.w3.org/2000/svg"
 width="1598.000000pt" height="1598.000000pt" viewBox="0 0 1598.000000 1598.000000"
 preserveAspectRatio="xMidYMid meet">
<metadata>
Created by potrace 1.14, written by Peter Selinger 2001-2017
</metadata>
<g transform="translate(0.000000,1598.000000) scale(0.100000,-0.100000)"
fill="#000000" stroke="none">
<path d="M7987 14274 c-1 -1 -96 -4 -212 -8 -115 -4 -221 -8 -235 -10 -14 -2
-67 -7 -117 -10 -51 -4 -103 -9 -115 -11 -13 -2 -49 -6 -82 -10 -32 -4 -68 -8
-80 -10 -11 -2 -37 -6 -56 -9 -110 -16 -276 -46 -395 -70 -251 -51 -730 -192
-890 -261 -16 -7 -61 -25 -100 -40 -418 -160 -915 -430 -1310 -713 -101 -72
-322 -242 -361 -277 -7 -5 -38 -32 -70 -60 -32 -27 -83 -72 -114 -99 -89 -79
-317 -305 -420 -416 -52 -57 -102 -110 -110 -119 -8 -9 -44 -52 -80 -96 -36
-44 -68 -82 -71 -85 -23 -18 -250 -326 -345 -470 -411 -616 -713 -1314 -879
-2030 -33 -141 -83 -404 -90 -470 -3 -25 -7 -56 -10 -69 -2 -13 -7 -49 -10
-80 -4 -31 -8 -67 -10 -80 -2 -12 -7 -60 -10 -105 -4 -44 -9 -92 -11 -106 -23
-137 -22 -898 1 -1015 2 -11 7 -54 10 -95 3 -41 8 -88 10 -105 2 -16 7 -52 10
-80 47 -388 165 -894 293 -1250 68 -187 83 -229 92 -250 5 -11 30 -69 56 -130
183 -434 431 -870 718 -1260 97 -132 80 -111 213 -271 217 -262 508 -561 738
-755 22 -19 42 -36 45 -39 3 -3 43 -36 90 -73 47 -38 94 -75 104 -84 142 -116
519 -371 705 -476 660 -372 1294 -604 1996 -732 26 -4 89 -15 185 -30 28 -4
96 -13 150 -20 19 -2 53 -6 75 -9 334 -41 886 -51 1185 -21 25 2 79 7 120 11
41 3 82 7 90 9 8 1 44 6 80 10 36 4 72 9 81 10 9 2 40 6 70 10 30 3 61 8 69
10 8 2 35 7 60 10 287 40 948 222 1167 321 17 8 34 14 37 14 6 0 215 86 296
122 64 28 396 195 450 226 303 173 463 277 709 460 128 95 299 232 347 277 6
5 45 39 85 75 80 70 396 384 469 465 25 28 70 80 100 115 30 36 57 67 60 70
20 18 216 273 285 371 191 268 330 499 480 794 141 280 231 486 310 710 9 28
21 59 25 70 11 25 61 184 94 295 54 183 141 564 160 705 4 22 8 51 11 65 5 29
11 74 20 145 4 28 8 59 10 71 2 11 6 52 10 90 4 38 8 85 10 104 27 247 27 914
0 1125 -5 36 -14 121 -21 190 -4 44 -32 239 -49 335 -8 51 -45 229 -55 270 -5
19 -11 46 -13 60 -21 118 -186 667 -227 755 -5 11 -27 66 -49 122 -429 1091
-1198 2070 -2171 2764 -124 88 -394 265 -430 282 -8 4 -33 18 -55 31 -210 130
-686 355 -940 445 -49 18 -99 36 -110 41 -38 16 -271 90 -398 125 -171 48
-424 106 -562 129 -16 3 -41 8 -55 10 -14 3 -43 8 -65 11 -22 3 -67 10 -100
15 -87 13 -159 21 -320 36 -38 3 -86 8 -105 10 -19 2 -114 6 -210 9 -96 4
-194 8 -218 9 -24 1 -44 1 -45 0z m258 -259 c94 -3 184 -8 200 -9 17 -2 68 -7
115 -11 47 -4 92 -8 100 -10 8 -1 44 -6 80 -10 70 -7 95 -11 180 -25 30 -5 73
-12 95 -15 22 -3 47 -7 55 -10 8 -2 31 -6 50 -9 19 -3 78 -15 130 -27 52 -11
102 -22 110 -24 192 -43 634 -176 657 -198 17 -17 131 -412 150 -516 2 -14 10
-51 18 -81 19 -77 72 -348 81 -420 2 -19 11 -73 19 -120 7 -47 17 -110 20
-140 3 -30 8 -66 10 -80 3 -14 7 -55 10 -91 3 -36 7 -74 9 -85 2 -11 7 -60 11
-110 4 -49 9 -105 10 -124 27 -275 26 -1226 0 -1445 -2 -16 -6 -73 -10 -125
-3 -52 -8 -111 -10 -130 -2 -19 -6 -72 -10 -117 -3 -46 -8 -91 -9 -100 -2 -10
-7 -49 -11 -88 -6 -67 -10 -97 -20 -175 -3 -19 -8 -55 -11 -80 -9 -78 -34
-264 -38 -285 -2 -11 -7 -42 -10 -70 -4 -27 -9 -57 -11 -65 -2 -8 -6 -37 -10
-65 -3 -27 -8 -57 -10 -65 -2 -8 -6 -28 -9 -44 -3 -16 -7 -30 -8 -32 -2 -1
-109 66 -238 149 l-235 152 -1 285 c-1 316 -4 331 -67 371 -25 15 -48 19 -104
18 -119 -3 -163 -49 -163 -171 0 -32 -6 -74 -14 -93 -18 -42 -69 -75 -116 -75
-42 1 -51 6 -404 230 l-276 175 0 852 c0 842 0 854 -21 915 -12 35 -27 77 -35
93 -7 17 -47 116 -87 220 -249 635 -242 620 -297 628 -34 5 -73 -9 -88 -33 -6
-11 -52 -124 -102 -252 -50 -128 -94 -242 -99 -253 -5 -11 -47 -114 -92 -230
l-83 -210 -1 -864 -1 -863 -39 -28 c-80 -57 -511 -333 -558 -357 -54 -29 -98
-26 -141 8 -39 31 -49 56 -51 134 -2 84 -18 121 -64 152 -29 19 -44 22 -110
20 -89 -3 -122 -21 -146 -80 -12 -30 -15 -86 -14 -309 0 -214 -2 -273 -13
-279 -7 -4 -85 -55 -173 -112 -88 -57 -163 -103 -166 -101 -4 2 -3 21 1 41 5
21 11 56 14 78 3 22 8 51 11 65 7 40 14 80 21 129 3 25 7 56 9 67 2 12 6 48
10 80 4 33 9 70 11 84 2 14 6 54 9 90 3 36 8 76 10 90 3 14 7 66 11 115 3 50
8 104 10 120 26 207 25 1114 -2 1400 -4 52 -9 110 -19 235 -3 41 -7 91 -10
110 -5 41 -16 132 -20 175 -28 277 -110 768 -190 1140 -15 66 -28 131 -31 145
-7 34 -83 351 -89 371 -9 29 539 195 840 255 11 2 54 10 95 19 77 15 85 16
205 35 110 17 117 18 170 25 59 8 84 10 190 20 44 4 94 8 110 10 17 2 109 7
205 10 96 4 176 8 177 9 3 2 144 -2 318 -9z m1980 -425 c223 -89 528 -237 726
-352 160 -92 167 -98 173 -128 2 -14 16 -83 31 -155 15 -71 29 -141 31 -155
30 -166 44 -242 49 -280 4 -25 9 -54 11 -65 10 -50 63 -438 69 -505 4 -41 8
-82 10 -90 1 -8 6 -54 9 -101 4 -47 9 -101 11 -119 3 -19 7 -80 11 -135 3 -55
7 -120 9 -145 7 -108 18 -487 18 -615 -1 -145 -12 -526 -18 -605 -2 -25 -6
-88 -10 -140 -8 -123 -13 -184 -29 -335 -3 -22 -7 -69 -11 -105 -5 -57 -49
-372 -60 -440 -2 -14 -11 -70 -20 -125 -14 -86 -43 -242 -61 -325 -3 -14 -7
-36 -10 -50 -2 -14 -14 -68 -26 -121 l-21 -96 -133 86 c-74 47 -159 102 -189
121 -225 142 -575 373 -575 380 0 4 7 43 14 86 19 100 24 135 41 257 3 23 8
53 10 67 7 39 13 80 20 139 4 30 8 62 10 72 2 10 7 49 10 86 4 37 9 75 10 83
2 8 6 44 10 80 3 36 8 76 10 90 4 26 11 98 20 210 3 36 8 85 10 110 4 41 12
150 20 285 31 520 20 1121 -30 1605 -3 25 -7 68 -10 95 -3 28 -7 61 -9 75 -2
14 -7 50 -10 80 -6 53 -10 80 -21 145 -3 17 -8 46 -11 65 -3 19 -12 73 -20
120 -9 47 -18 101 -20 120 -3 19 -9 51 -14 70 -5 19 -12 51 -15 70 -4 27 -71
297 -119 481 -2 9 -14 46 -25 84 -23 72 -25 89 -13 82 4 -3 66 -28 137 -57z
m-4280 -174 c57 -244 50 -213 73 -326 11 -52 27 -129 36 -170 21 -105 64 -342
86 -485 6 -38 13 -81 15 -95 5 -36 13 -88 20 -140 3 -25 10 -76 15 -115 5 -38
12 -97 15 -130 3 -33 8 -71 10 -85 5 -28 9 -77 30 -320 20 -235 29 -494 29
-795 0 -233 -10 -600 -18 -640 -2 -11 -7 -69 -11 -129 -4 -60 -8 -116 -10
-125 -1 -9 -6 -52 -11 -96 -4 -44 -8 -82 -9 -85 -1 -3 -5 -36 -9 -75 -4 -38
-9 -81 -11 -95 -2 -14 -7 -45 -10 -70 -3 -25 -10 -70 -15 -100 -5 -30 -12 -71
-15 -90 -3 -19 -11 -69 -18 -110 l-13 -75 -179 -117 c-99 -65 -210 -137 -247
-160 -133 -85 -236 -151 -463 -298 -126 -82 -231 -148 -232 -146 -1 1 4 24 13
51 37 125 110 418 130 525 15 79 24 127 27 145 3 11 8 40 12 65 4 25 9 52 10
60 3 19 15 95 21 135 2 17 6 41 9 55 3 14 7 52 10 85 3 33 8 71 10 85 2 14 7
54 10 90 4 36 8 81 10 100 2 19 7 76 10 125 4 50 9 108 11 130 15 186 20 671
9 1015 -7 250 -9 277 -19 390 -3 36 -8 94 -11 130 -3 36 -7 81 -10 100 -3 19
-7 58 -10 85 -5 52 -12 105 -21 166 -3 20 -7 51 -9 70 -3 32 -11 89 -20 149
-2 14 -9 57 -15 95 -18 118 -20 129 -25 155 -3 14 -7 34 -9 45 -2 11 -12 61
-21 110 -9 50 -19 101 -21 115 -7 40 -52 252 -86 405 -17 77 -33 149 -35 160
-3 17 17 31 119 87 200 109 313 165 513 254 150 68 271 111 276 101 4 -7 28
-102 54 -211z m-985 -322 c36 -156 131 -627 155 -774 3 -19 8 -42 10 -50 2 -8
6 -35 9 -60 3 -25 8 -56 11 -70 3 -14 7 -41 10 -60 12 -97 18 -137 21 -154 2
-10 6 -44 9 -75 3 -31 8 -65 10 -76 2 -11 7 -49 10 -85 3 -36 8 -74 10 -85 2
-11 7 -63 10 -115 4 -52 9 -106 11 -120 25 -151 25 -1266 0 -1465 -2 -16 -7
-70 -10 -120 -4 -49 -9 -103 -11 -120 -3 -16 -7 -55 -10 -85 -2 -30 -7 -72
-10 -92 -3 -21 -7 -55 -10 -75 -20 -135 -38 -249 -51 -323 -9 -47 -18 -96 -21
-110 -2 -13 -11 -56 -19 -95 -17 -76 -17 -76 -34 -150 -6 -27 -13 -57 -15 -65
-26 -117 -103 -374 -112 -377 -5 -2 -52 -31 -104 -66 -52 -34 -230 -149 -395
-255 -164 -107 -368 -238 -453 -293 -84 -55 -156 -98 -158 -95 -5 5 62 270
102 401 97 318 205 807 250 1128 3 23 8 49 10 57 2 8 7 44 10 80 4 36 8 67 10
70 1 3 6 41 10 84 4 43 8 86 10 96 2 9 6 52 10 96 4 43 8 95 10 114 2 19 6 80
10 135 3 55 8 129 10 165 6 85 7 670 1 780 -7 150 -17 304 -21 340 -7 60 -16
153 -20 205 -2 28 -6 64 -9 80 -2 17 -7 55 -11 86 -3 31 -7 65 -9 75 -4 20
-14 93 -22 154 -2 19 -8 58 -14 85 -5 28 -12 66 -14 85 -3 19 -8 46 -11 60 -2
13 -7 42 -11 64 -3 22 -7 43 -9 46 -2 3 -6 23 -9 45 -4 22 -8 47 -11 55 -2 8
-6 26 -9 40 -7 36 -44 208 -55 253 -9 37 -8 40 30 74 128 115 348 288 528 414
139 97 344 228 349 224 2 -1 11 -38 22 -81z m6376 -95 c278 -190 558 -415 762
-614 81 -79 84 -83 98 -150 38 -177 104 -506 109 -541 3 -21 9 -52 12 -69 4
-16 8 -34 9 -40 7 -36 41 -269 49 -340 3 -27 8 -61 10 -75 3 -14 7 -56 11 -95
3 -38 8 -77 9 -87 23 -118 23 -852 0 -1051 -2 -17 -6 -72 -10 -121 -4 -50 -8
-98 -10 -108 -2 -10 -7 -50 -10 -88 -3 -38 -8 -79 -10 -91 -3 -13 -7 -45 -10
-73 -3 -28 -12 -91 -20 -141 -18 -115 -22 -149 -31 -210 -3 -27 -8 -53 -10
-56 -2 -4 -6 -24 -9 -45 -8 -56 -11 -70 -51 -279 -20 -104 -38 -199 -40 -210
-16 -83 -67 -327 -104 -495 -11 -52 -26 -121 -31 -153 -9 -47 -15 -57 -27 -52
-9 3 -139 86 -289 183 -150 97 -291 188 -313 202 -22 14 -92 59 -156 100 -112
72 -116 76 -110 105 3 16 27 140 55 275 27 135 52 263 55 285 6 35 10 59 22
127 1 9 5 38 9 65 4 26 9 59 11 73 2 14 11 79 19 145 26 200 32 256 40 350 3
39 8 86 10 105 3 19 7 76 10 125 4 50 8 109 10 133 24 286 24 936 0 1322 -5
82 -16 234 -20 270 -2 19 -7 67 -10 105 -4 39 -8 84 -10 100 -2 17 -8 76 -15
132 -6 56 -13 110 -15 122 -2 11 -6 46 -10 78 -3 32 -8 65 -10 73 -2 8 -6 38
-10 65 -5 45 -38 247 -49 301 -2 12 -7 39 -10 60 -8 46 -63 324 -72 359 -3 14
-2 25 3 25 5 0 77 -46 159 -101z m-7291 -805 c21 -99 39 -188 41 -199 12 -70
35 -205 39 -230 5 -36 34 -237 39 -280 3 -16 8 -61 11 -100 4 -38 9 -78 11
-88 2 -10 6 -53 9 -95 3 -42 8 -95 10 -117 28 -268 28 -1014 0 -1340 -2 -27
-7 -77 -9 -110 -6 -60 -13 -129 -21 -195 -3 -19 -7 -57 -10 -85 -2 -27 -6 -59
-9 -70 -2 -11 -7 -45 -10 -76 -4 -31 -8 -66 -11 -77 -2 -11 -6 -37 -9 -58 -4
-22 -11 -66 -17 -99 -5 -33 -12 -69 -14 -80 -3 -19 -40 -213 -50 -263 -2 -13
-7 -32 -10 -42 -3 -10 -8 -29 -10 -42 -3 -13 -7 -34 -10 -48 -3 -14 -7 -34 -9
-45 -11 -54 -89 -346 -124 -466 -23 -75 -55 -192 -72 -260 -17 -68 -35 -140
-40 -159 -8 -29 -22 -43 -78 -77 -38 -24 -76 -51 -84 -60 -23 -27 -98 -234
-98 -271 0 -75 56 -128 137 -131 16 -1 21 -6 18 -20 -3 -17 -11 -72 -20 -141
-2 -14 -6 -43 -9 -65 -7 -54 -14 -117 -21 -190 -3 -33 -8 -87 -11 -120 -32
-319 -36 -1064 -8 -1350 2 -22 6 -77 9 -122 3 -45 8 -96 10 -115 3 -18 7 -62
10 -98 3 -36 8 -76 10 -90 3 -14 7 -54 10 -89 3 -36 8 -67 10 -70 1 -3 6 -35
10 -71 4 -36 9 -72 10 -82 2 -9 7 -38 11 -65 3 -26 8 -57 10 -68 7 -33 25
-148 29 -177 2 -15 8 -51 14 -80 6 -29 13 -64 16 -78 3 -14 7 -38 11 -55 5
-28 0 -24 -63 40 -324 328 -674 799 -907 1220 -16 28 -39 68 -52 90 -26 45
-54 163 -85 353 -11 70 -22 138 -24 151 -2 12 -7 60 -11 105 -3 44 -8 84 -10
87 -6 10 -17 307 -17 444 0 202 13 425 33 585 6 41 12 95 15 120 3 25 10 70
15 100 5 30 11 71 14 90 11 78 17 117 21 140 3 14 7 39 10 55 3 17 7 44 10 60
3 17 8 46 11 65 3 19 10 60 15 90 6 30 12 71 15 90 2 19 6 46 9 60 3 14 7 36
10 50 2 14 15 90 29 170 14 80 28 165 31 190 3 25 7 56 10 70 8 43 15 83 21
130 3 25 7 52 9 60 4 21 14 88 20 135 3 22 7 56 10 75 2 19 7 58 10 85 3 28 7
64 10 80 7 48 14 115 21 195 3 41 7 91 9 110 25 221 25 761 1 995 -14 138 -22
206 -31 255 -3 14 -8 43 -11 65 -10 70 -52 257 -83 373 -26 93 -29 117 -19
135 33 63 168 280 235 379 215 319 462 617 747 903 l189 189 13 -51 c7 -28 29
-131 49 -229z m8486 -264 c242 -285 502 -653 634 -895 15 -27 47 -86 71 -130
105 -190 122 -234 148 -375 27 -148 32 -179 41 -260 3 -30 8 -71 10 -90 22
-181 23 -685 1 -900 -2 -19 -7 -70 -11 -112 -3 -43 -8 -90 -10 -105 -2 -16 -6
-55 -9 -88 -11 -101 -17 -148 -26 -210 -5 -33 -12 -80 -15 -105 -3 -25 -10
-74 -16 -110 -5 -36 -12 -76 -14 -90 -2 -14 -6 -43 -10 -65 -3 -22 -10 -65
-15 -95 -15 -85 -19 -114 -24 -151 -3 -19 -7 -44 -10 -55 -2 -12 -7 -38 -10
-58 -3 -20 -9 -52 -12 -72 -3 -20 -7 -45 -9 -54 -2 -10 -7 -40 -11 -67 -5 -26
-9 -50 -9 -53 -1 -3 -5 -32 -10 -65 -5 -33 -9 -62 -10 -65 -7 -33 -41 -250
-60 -390 -3 -25 -8 -56 -10 -70 -2 -14 -7 -48 -9 -77 -3 -28 -10 -71 -15 -95
-5 -23 -12 -72 -16 -108 -4 -36 -9 -74 -11 -85 -10 -51 -19 -259 -19 -455 0
-282 10 -419 51 -725 6 -45 42 -256 49 -285 3 -14 8 -38 10 -55 3 -16 12 -57
19 -90 17 -69 19 -62 -95 -252 -238 -394 -563 -807 -891 -1132 l-73 -73 -13
44 c-7 24 -17 63 -22 88 -5 25 -21 99 -35 165 -22 101 -47 226 -69 345 -6 32
-36 217 -41 250 -2 14 -6 43 -10 65 -3 22 -8 55 -10 73 -2 18 -9 67 -15 110
-5 42 -12 97 -14 122 -3 25 -9 90 -15 145 -41 400 -48 1006 -16 1345 2 19 6
71 10 115 3 44 8 91 10 105 2 14 6 50 10 80 12 111 16 140 50 350 10 61 18 81
28 77 7 -2 139 -53 295 -112 316 -120 333 -122 391 -63 42 43 47 90 20 168
-38 111 -66 173 -87 195 -12 12 -132 93 -267 179 -135 87 -247 161 -249 164
-2 4 7 52 19 107 26 112 93 427 100 465 3 14 7 36 10 50 3 14 7 34 9 45 3 11
11 54 19 95 28 137 49 244 58 300 5 30 17 93 25 140 15 89 19 113 29 183 3 23
8 49 10 57 2 8 6 38 10 65 3 28 8 57 10 65 2 8 6 40 10 71 3 31 7 65 9 75 2
11 7 53 11 94 4 41 9 82 10 92 2 9 6 51 10 95 4 43 8 94 10 113 12 115 20 331
20 585 0 308 -7 447 -30 630 -2 22 -7 65 -10 95 -9 84 -30 228 -47 325 -5 33
-12 71 -14 85 -5 28 -14 83 -21 120 -2 14 -18 93 -34 175 -17 83 -33 164 -35
180 -3 17 -12 55 -20 86 -8 31 -14 61 -14 65 1 14 176 -171 291 -306z m-9728
-1125 c29 -112 72 -324 81 -400 4 -27 11 -81 16 -120 5 -38 12 -99 15 -135 2
-36 8 -103 11 -150 13 -162 6 -600 -11 -780 -2 -19 -6 -72 -10 -118 -3 -46 -8
-91 -10 -100 -1 -9 -6 -48 -9 -87 -4 -38 -9 -81 -11 -95 -2 -14 -6 -47 -9 -75
-4 -27 -8 -61 -11 -75 -2 -14 -7 -47 -10 -75 -7 -60 -22 -157 -45 -295 -13
-78 -21 -130 -26 -170 -2 -19 -11 -71 -19 -115 -8 -44 -16 -93 -19 -110 -3
-16 -8 -46 -11 -65 -5 -31 -20 -115 -31 -175 -18 -101 -84 -513 -89 -560 -4
-33 -9 -67 -10 -75 -2 -8 -6 -46 -10 -85 -3 -38 -8 -83 -10 -100 -25 -195 -25
-739 0 -960 3 -22 8 -62 11 -90 5 -51 7 -66 19 -145 12 -79 16 -104 24 -142
22 -97 -20 -17 -141 272 -58 136 -210 568 -223 629 -2 9 -19 77 -39 151 -19
74 -37 146 -40 160 -3 14 -12 59 -21 100 -29 131 -70 371 -80 465 -3 22 -7 56
-10 75 -4 34 -12 117 -20 210 -23 270 -23 835 0 980 2 14 7 61 10 105 3 44 7
91 9 105 3 14 7 48 11 75 7 53 8 64 25 165 25 159 56 311 90 450 17 69 33 136
36 150 22 107 169 547 229 685 7 17 24 57 38 90 82 199 256 550 267 538 4 -4
19 -53 33 -108z m10677 -400 c18 -44 38 -93 45 -110 8 -16 21 -50 30 -75 9
-25 21 -54 26 -65 14 -32 73 -208 118 -350 50 -160 112 -407 146 -580 29 -147
28 -141 50 -290 23 -162 24 -168 31 -242 3 -37 7 -79 10 -92 25 -161 25 -941
0 -1078 -2 -10 -7 -54 -11 -98 -4 -44 -8 -87 -10 -95 -1 -8 -6 -40 -9 -71 -4
-31 -8 -65 -10 -75 -2 -11 -7 -41 -10 -69 -4 -27 -9 -57 -11 -65 -5 -17 -12
-57 -21 -110 -3 -19 -9 -53 -14 -75 -5 -22 -11 -53 -14 -70 -3 -16 -24 -102
-46 -190 -23 -88 -42 -164 -44 -170 -28 -111 -139 -433 -209 -605 -69 -171
-80 -196 -189 -417 -81 -168 -104 -205 -105 -170 0 6 -8 48 -18 92 -9 44 -19
94 -21 110 -2 17 -6 41 -9 55 -13 64 -41 256 -50 345 -3 33 -8 74 -10 90 -23
180 -24 726 -1 865 3 14 7 52 11 85 3 33 8 71 10 85 5 26 6 30 30 205 19 138
18 132 60 395 2 14 6 43 9 65 7 50 17 114 22 139 2 11 17 103 34 205 17 103
33 197 36 211 2 14 7 41 9 60 3 19 8 45 11 58 2 12 7 42 10 66 2 24 7 55 9 67
4 20 19 117 40 264 4 34 14 105 19 150 2 17 7 50 10 75 7 58 14 119 21 200 4
36 8 81 10 100 19 163 25 588 13 815 -8 149 -42 426 -55 450 -4 7 -3 7 4 0 5
-5 24 -46 43 -90z m-5829 -2072 c1 -5 2 -386 3 -848 1 -462 4 -845 8 -851 4
-6 9 -31 12 -55 4 -37 36 -254 50 -339 12 -67 28 -172 31 -192 4 -38 15 -110
25 -168 13 -77 18 -108 25 -160 3 -25 10 -70 15 -100 5 -30 12 -71 14 -90 7
-48 15 -105 26 -170 6 -30 12 -73 15 -96 l5 -41 -593 -395 c-402 -269 -597
-405 -608 -424 -47 -82 -16 -199 63 -240 55 -28 106 -25 239 16 68 21 192 59
274 85 83 25 177 54 210 64 33 11 121 38 195 61 74 23 185 57 245 77 164 53
233 52 418 -4 78 -24 185 -56 237 -72 52 -16 249 -76 436 -135 188 -58 360
-108 383 -111 96 -12 180 62 183 162 4 102 19 89 -583 490 -299 200 -553 371
-565 381 -37 29 -63 90 -59 136 4 46 15 130 21 161 2 11 7 38 10 60 2 22 7 54
10 70 3 17 7 44 10 60 2 17 6 48 9 70 4 22 8 51 10 65 5 34 17 111 21 134 2
10 6 44 10 75 3 31 8 58 9 61 2 3 6 29 10 59 4 30 8 62 10 71 2 9 6 41 10 71
4 30 8 56 10 59 2 3 6 34 10 70 4 36 8 67 10 70 2 3 6 29 10 59 4 30 10 63 13
75 4 12 8 407 9 878 l4 857 27 -5 c15 -2 43 -7 62 -10 19 -3 51 -8 70 -10 19
-3 159 -23 310 -45 151 -22 293 -42 315 -45 88 -10 146 -28 373 -114 255 -97
268 -103 265 -119 -5 -20 -55 -266 -60 -291 -2 -14 -9 -45 -14 -70 -6 -25 -13
-56 -15 -70 -3 -14 -16 -81 -29 -150 -13 -69 -27 -138 -30 -155 -2 -16 -7 -41
-10 -55 -7 -33 -56 -307 -61 -345 -6 -34 -22 -130 -28 -161 -2 -11 -7 -47 -10
-79 -4 -32 -8 -61 -10 -64 -2 -3 -7 -33 -10 -66 -4 -33 -9 -71 -11 -85 -2 -14
-7 -47 -10 -75 -6 -57 -14 -126 -20 -170 -2 -16 -7 -64 -10 -105 -3 -41 -8
-88 -10 -105 -4 -27 -7 -90 -20 -325 -5 -98 -6 -511 0 -575 2 -27 6 -102 10
-165 3 -63 8 -131 10 -150 2 -19 6 -78 10 -130 3 -52 8 -108 10 -125 2 -16 7
-66 10 -109 4 -43 9 -88 11 -100 2 -12 6 -48 9 -81 3 -33 7 -76 10 -95 2 -19
6 -55 9 -80 9 -76 46 -353 51 -379 2 -14 7 -45 10 -70 9 -77 86 -517 110 -631
3 -14 7 -35 10 -48 2 -13 6 -31 9 -40 3 -9 7 -33 10 -52 6 -38 25 -127 57
-259 11 -46 16 -87 12 -91 -36 -32 -666 -207 -848 -234 -22 -4 -47 -8 -55 -11
-8 -2 -31 -6 -50 -9 -19 -3 -46 -8 -60 -10 -14 -3 -41 -7 -60 -10 -19 -2 -57
-8 -85 -12 -27 -3 -59 -8 -70 -10 -11 -2 -52 -7 -92 -9 -39 -3 -80 -7 -91 -10
-18 -3 -105 -10 -267 -21 -76 -5 -515 -5 -615 0 -94 5 -237 16 -270 21 -14 2
-54 6 -90 9 -36 3 -76 8 -90 11 -14 3 -45 7 -69 10 -49 5 -105 13 -141 20 -14
3 -38 7 -55 10 -16 3 -41 7 -55 9 -230 40 -539 119 -804 207 -196 66 -232 81
-233 101 0 7 -16 81 -36 163 -33 142 -63 279 -73 335 -2 14 -9 45 -14 70 -5
25 -19 99 -30 165 -12 66 -23 131 -25 144 -2 13 -7 45 -11 70 -4 25 -8 55 -10
66 -6 28 -34 223 -39 265 -2 19 -7 55 -10 80 -3 25 -8 65 -10 90 -3 25 -8 61
-10 80 -3 19 -8 67 -11 105 -4 39 -8 84 -10 100 -1 17 -5 73 -9 125 -4 52 -9
111 -10 130 -21 217 -28 1083 -11 1340 4 69 9 154 12 190 2 36 6 90 9 120 3
30 7 82 11 115 15 167 24 249 44 393 6 43 13 96 15 117 19 149 64 410 106 620
17 83 33 161 35 175 3 14 7 33 10 42 5 17 11 44 20 88 14 67 44 173 51 180 4
4 123 50 263 103 140 53 269 102 285 108 17 7 35 13 40 15 6 1 69 25 140 53
128 50 198 67 410 96 17 2 64 9 105 15 41 6 89 13 105 15 72 10 191 27 206 30
9 2 40 6 70 10 30 4 72 11 94 15 56 11 55 11 56 3z m2834 -515 c231 -88 423
-163 427 -166 4 -4 0 -32 -8 -62 -8 -30 -16 -64 -18 -75 -2 -11 -9 -39 -15
-61 -6 -23 -15 -62 -20 -85 -5 -24 -16 -78 -26 -119 -9 -41 -19 -86 -21 -100
-2 -14 -9 -47 -14 -75 -6 -27 -12 -61 -15 -75 -13 -66 -51 -294 -60 -360 -3
-25 -10 -72 -15 -105 -13 -89 -21 -156 -25 -196 -3 -32 -6 -62 -20 -199 -2
-19 -7 -69 -10 -110 -3 -41 -8 -94 -10 -118 -27 -309 -27 -1123 0 -1427 2 -27
7 -86 10 -130 3 -44 8 -96 10 -115 2 -19 7 -62 10 -95 6 -60 20 -184 31 -260
3 -22 7 -56 10 -75 11 -90 14 -117 18 -140 3 -14 12 -70 20 -125 9 -55 18
-111 21 -125 3 -14 8 -41 11 -60 3 -19 21 -114 41 -210 38 -190 36 -182 53
-255 13 -59 20 -52 -135 -133 -220 -113 -652 -302 -692 -302 -6 0 -20 39 -31
88 -25 103 -69 305 -76 347 -3 17 -8 41 -11 55 -3 14 -8 36 -10 50 -2 14 -7
39 -10 55 -3 17 -10 55 -15 85 -6 30 -12 66 -15 80 -27 135 -99 622 -120 815
-3 28 -7 64 -9 80 -3 17 -8 62 -11 100 -4 39 -9 77 -10 86 -2 8 -6 55 -10 105
-4 49 -8 100 -10 114 -2 14 -7 68 -10 120 -4 52 -9 113 -11 135 -24 272 -24
902 0 1125 3 19 7 75 11 125 4 49 8 96 10 105 1 8 6 42 9 75 11 95 16 138 21
165 2 14 7 52 10 85 4 33 8 67 10 75 2 8 7 35 10 60 7 53 43 274 50 310 2 13
7 42 11 64 3 22 7 43 9 46 1 3 6 27 9 53 8 57 174 895 181 916 3 8 12 10 23 6
9 -4 206 -79 437 -167z m-4668 18 c-8 -20 -68 -296 -106 -481 -27 -136 -40
-205 -56 -305 -3 -19 -10 -60 -15 -90 -5 -30 -12 -75 -15 -100 -3 -25 -8 -56
-10 -70 -3 -14 -7 -49 -10 -79 -3 -30 -7 -57 -9 -60 -2 -3 -7 -42 -11 -86 -4
-44 -8 -82 -10 -85 -2 -3 -6 -44 -9 -91 -4 -47 -8 -95 -10 -106 -2 -10 -7 -59
-11 -109 -4 -49 -9 -106 -11 -126 -3 -37 -13 -205 -20 -348 -4 -97 -4 -849 0
-915 2 -27 7 -108 11 -180 3 -71 8 -150 10 -175 11 -139 17 -208 20 -230 2
-14 7 -59 10 -100 3 -41 8 -86 10 -100 3 -23 9 -74 20 -170 4 -34 33 -241 40
-290 26 -166 70 -416 90 -510 2 -14 10 -50 16 -80 18 -93 20 -102 40 -195 12
-49 23 -101 25 -115 5 -25 21 -90 30 -123 5 -16 1 -16 -48 4 -195 76 -469 206
-669 317 -224 124 -202 101 -237 249 -48 197 -69 289 -77 338 -3 17 -8 37 -10
45 -5 16 -4 13 -40 215 -29 168 -38 219 -49 300 -4 22 -8 51 -11 65 -2 14 -7
46 -10 73 -3 26 -7 68 -10 95 -3 26 -8 61 -10 77 -6 46 -15 134 -20 195 -2 30
-6 80 -9 110 -6 54 -8 88 -23 320 -15 242 -8 996 11 1210 2 19 7 82 11 140 3
58 8 116 10 130 2 14 7 59 10 100 3 41 8 86 10 100 2 14 6 52 10 85 3 33 8 71
10 85 2 14 6 43 9 65 10 74 36 250 41 275 3 14 7 43 10 65 2 22 11 76 20 120
8 44 17 98 21 120 7 45 10 48 74 72 72 27 430 162 495 188 33 13 141 53 240
90 99 37 187 71 195 76 23 13 33 11 27 -5z m5370 -285 c114 -44 327 -125 472
-180 145 -55 265 -102 267 -104 2 -1 -5 -50 -16 -107 -10 -58 -21 -129 -25
-159 -4 -30 -8 -61 -10 -70 -1 -9 -6 -45 -10 -81 -3 -36 -8 -72 -10 -80 -2 -8
-7 -51 -10 -95 -4 -44 -8 -93 -11 -110 -12 -99 -19 -334 -18 -640 0 -307 3
-409 18 -605 11 -135 35 -363 51 -470 2 -14 7 -50 10 -80 4 -30 9 -62 10 -70
2 -8 6 -37 9 -63 6 -43 60 -348 71 -402 2 -11 7 -32 10 -47 5 -28 54 -252 60
-278 1 -8 11 -53 21 -98 l18 -84 -40 -37 c-54 -51 -199 -178 -258 -226 -27
-22 -54 -45 -60 -50 -11 -11 -151 -118 -211 -162 -81 -59 -440 -296 -517 -341
l-87 -50 -11 51 c-37 168 -93 451 -105 527 -2 14 -6 39 -9 55 -12 68 -35 223
-41 270 -4 28 -11 78 -16 112 -5 34 -12 86 -14 115 -3 29 -7 64 -10 78 -2 14
-7 63 -10 110 -4 47 -8 92 -10 100 -1 8 -6 60 -10 115 -4 55 -8 116 -10 135
-25 263 -25 1062 0 1330 2 19 6 80 10 135 4 55 8 107 10 115 1 8 6 51 9 95 4
44 9 91 11 105 2 14 7 50 10 80 3 30 8 66 10 80 2 14 7 49 10 79 4 30 8 61 10
70 2 14 6 35 21 136 22 141 70 391 99 519 8 34 16 72 19 86 4 22 30 131 57
233 5 20 14 37 19 37 5 0 103 -36 217 -79z m-6442 -123 c-2 -7 -7 -26 -10 -43
-6 -36 -34 -207 -41 -250 -3 -16 -6 -39 -8 -50 -2 -11 -7 -44 -11 -74 -3 -30
-8 -62 -10 -71 -2 -9 -6 -41 -10 -71 -3 -30 -8 -65 -10 -79 -3 -14 -9 -67 -15
-118 -6 -51 -12 -110 -15 -130 -2 -20 -7 -68 -10 -107 -3 -38 -8 -86 -10 -105
-2 -19 -7 -89 -10 -155 -4 -66 -9 -128 -11 -138 -4 -22 -17 -482 -17 -597 0
-192 15 -595 28 -740 4 -47 8 -105 10 -130 4 -63 15 -180 20 -210 3 -14 7 -54
10 -90 3 -36 8 -76 10 -90 2 -14 6 -45 10 -70 14 -109 28 -203 46 -310 11 -63
25 -142 30 -175 6 -33 19 -100 29 -150 11 -49 21 -101 24 -115 5 -30 41 -184
67 -290 10 -41 17 -76 15 -77 -5 -5 -281 182 -403 273 -201 149 -426 338 -577
484 l-49 48 -28 143 c-25 129 -80 460 -93 564 -5 35 -15 120 -31 245 -3 19 -7
62 -10 95 -3 33 -8 76 -10 95 -3 19 -7 78 -11 130 -3 52 -7 115 -9 140 -25
350 -21 917 10 1260 2 25 7 74 10 110 7 83 17 171 20 190 1 8 6 44 11 80 4 36
8 67 9 70 1 3 5 33 9 67 l8 61 51 21 c29 11 153 58 277 105 124 47 329 126
455 175 127 49 235 89 242 90 7 1 10 -5 8 -11z"/>
</g>
</svg>
